<?xml version="1.0" encoding="UTF-8"?>
<!DOCTYPE svg PUBLIC "-//W3C//DTD SVG 1.1//EN" "http://www.w3.org/Graphics/SVG/1.1/DTD/svg11.dtd">
<!-- Creator: CorelDRAW 2021 (64-Bit) -->
<svg xmlns="http://www.w3.org/2000/svg" xml:space="preserve" width="259.479mm" height="161.35mm" version="1.1" style="shape-rendering:geometricPrecision; text-rendering:geometricPrecision; image-rendering:optimizeQuality; fill-rule:evenodd; clip-rule:evenodd"
viewBox="0 0 17311.33 10764.55"
 xmlns:xlink="http://www.w3.org/1999/xlink"
 xmlns:xodm="http://www.corel.com/coreldraw/odm/2003">
 <defs>
  <style type="text/css">
   <![CDATA[
    .fil0 {fill:white;fill-rule:nonzero}
   ]]>
  </style>
 </defs>
 <g id="Ebene_x0020_1">
  <metadata id="CorelCorpID_0Corel-Layer"/>
  <g id="_1243088088528">
   <path class="fil0" d="M340.6 3608.8c-99.52,124.89 -192.23,446.46 -214.78,528.44 -21.28,44.23 -28.78,77.66 -28.78,77.66 0,0 38.17,0 63.98,-26.94 25.82,-26.93 49.39,-69.58 49.39,-69.58l38.15 69.58c0,0 130.2,-222.23 208.77,-424.27 78.57,-202.03 118.97,-327.74 118.97,-327.74 0,0 -121.22,29.19 -235.7,172.85z"/>
   <path class="fil0" d="M7.25 5836.76c-25.82,42.65 15.71,157.14 150.4,214.38 134.69,57.24 209.89,37.04 209.89,37.04 0,0 -33.67,-8.98 -136.93,-79.69 -103.26,-70.71 -223.36,-171.73 -223.36,-171.73z"/>
   <path class="fil0" d="M2533.02 1690.99l126.46 -26.19c1037.1,-444.47 2258.26,-372.63 2258.26,-372.63 -83.05,-38.17 -136.93,-62.85 -136.93,-62.85 76.32,-13.47 300.81,6.73 300.81,6.73 -1472.59,-377.12 -2864.37,502.83 -2864.37,502.83 0,0 300.81,-94.28 408.55,-109.24l-92.78 61.35z"/>
   <path class="fil0" d="M7739.45 2813.39c0,0 10.48,-25.44 0,-77.82 0,0 109.25,89.79 167.62,164.62 0,0 -17.96,-61.36 -44.15,-104.02l44.15 17.21c-222.99,-306.79 -586.64,-582.14 -586.64,-582.14l37.41 98.77c0,0 -44.89,-40.41 -136.19,-55.37 0,0 434,432.5 517.8,538.75z"/>
   <path class="fil0" d="M8572.27 4358.56c-154.89,222.24 -413.04,372.63 -413.04,372.63 361.41,0 413.04,-372.63 413.04,-372.63z"/>
   <path class="fil0" d="M6594.61 9532.82c-1589.32,835.06 -2711.72,567.94 -2711.72,567.94 -244.68,49.38 -489.36,67.34 -489.36,67.34 0,0 457.94,312.02 1750.94,83.05 1293,-228.97 1750.94,-758.74 1750.94,-758.74 -74.83,47.89 -308.28,119.73 -308.28,119.73l7.47 -79.32z"/>
   <path class="fil0" d="M6667.94 7973.43c4.49,56.87 -11.97,209.51 -131.7,211.02 -119.72,1.49 -157.14,-20.96 -200.53,-13.47 -43.4,7.48 -148.16,-20.95 -148.16,-20.95 0,0 85.3,-148.16 211.02,-131.7 125.71,16.45 124.2,-64.36 170.6,-121.22 46.39,-56.87 127.21,-50.88 127.21,-50.88 0,0 -32.92,70.34 -28.43,127.21zm-2807.49 725.82c-50.88,-76.32 -38.91,-136.19 -121.22,-164.62 -82.31,-28.43 -178.09,-26.93 -203.53,-127.21 0,0 25.44,1.5 116.73,-19.45 91.29,-20.95 194.55,-37.41 258.9,56.87 64.35,94.28 37.42,145.17 70.35,188.56 32.92,43.41 44.89,137.69 44.89,142.17 0,4.49 -115.23,0 -166.11,-76.32zm4513.54 -1484.56c-140.14,17.65 -259.03,77.57 -311.87,107.86 -201.49,23.66 -415.44,52.8 -481.29,76.21 -74.72,26.57 -168.74,89.04 -237.69,139.42 80.49,-176.8 141.91,-316.01 141.91,-316.01l-4869.72 841.05 14.96 -41.9c-124.69,8.81 -500.98,109.63 -514.39,117.83 0.73,-5.32 -0.42,-40.01 -0.42,-40.01 -44.89,14.97 -161.63,106.26 -161.63,106.26 1227.16,1186.75 2849.39,977.23 2849.39,977.23l-130.2 132.44c1458.93,-82.69 2282.35,-978.69 2462.75,-1197.73 80.44,-5.29 167.13,-12.38 254.61,-20.37l91.77 89.1 145.65 123.58 46.91 -48.32 -127.83 -141.93 -35.04 -34.02c320.21,-31.76 616.68,-70.09 616.68,-70.09 251.41,-338.28 341.2,-736.23 341.2,-736.23 0,0 -60.18,5.72 -149.55,15.03 26.21,-41.02 53.77,-79.39 53.77,-79.39z"/>
   <path class="fil0" d="M1104.28 7562.84c-21.97,-40.66 -41.43,-95.17 -58.36,-163.57 -16.96,-68.36 -34.06,-151.94 -51.36,-250.64 -17.32,-98.71 -29.6,-182.73 -36.8,-252.14 -7.23,-69.38 -7.49,-127.26 -0.79,-173.67 6.7,-46.38 21.68,-81.87 44.93,-106.44 23.25,-24.54 56.78,-40.69 100.67,-48.4 43.86,-7.69 80.91,-3.92 111.14,11.25 30.22,15.2 56.37,43.47 78.45,84.8 22.1,41.37 41.52,95.88 58.36,163.57 16.82,67.74 33.89,150.91 51.2,249.62 17.31,98.71 29.62,183.11 36.97,253.16 7.33,70.1 7.61,127.97 0.78,173.67 -6.82,45.71 -21.85,80.87 -45.09,105.42 -23.25,24.57 -56.82,40.7 -100.68,48.38 -43.89,7.7 -80.92,3.96 -111.14,-11.25 -30.22,-15.16 -56.31,-43.11 -78.28,-83.77zm226.56 306.83c111.04,-19.47 196.34,-52.82 255.89,-99.99 59.56,-47.17 100.92,-107.41 124.1,-180.73 23.18,-73.28 31.74,-157.45 25.67,-252.5 -6.06,-95.01 -18.96,-198.73 -38.67,-311.16 -19.47,-111.05 -42.58,-212.61 -69.34,-304.72 -26.75,-92.09 -63.49,-168.67 -110.23,-229.73 -46.74,-61.02 -106.32,-104.62 -178.73,-130.8 -72.41,-26.15 -164.15,-29.5 -275.2,-10.03 -111.04,19.47 -196.16,53.84 -255.35,103.07 -59.19,49.26 -100.37,110.54 -123.56,183.82 -23.18,73.32 -31.67,157.83 -25.49,253.53 6.18,95.72 19.01,199.09 38.49,310.13 19.71,112.43 42.88,214.34 69.5,305.75 26.64,91.45 63.32,167.68 110.05,228.7 46.74,61.05 106.14,103.63 178.2,127.72 72.05,24.09 163.59,26.42 274.65,6.95z"/>
   <path class="fil0" d="M2152.49 6850.17l-74.29 -423.61 139.83 -24.52c137.07,-24.04 217.55,31.8 241.34,167.52 13.94,79.53 4.64,139.45 -27.83,179.75 -32.5,40.35 -84.42,66.74 -155.68,79.24l-123.38 21.64zm334.67 204.14c31.79,28.33 54.12,71.05 66.98,128.15l57.63 280.29c6.4,28.55 14.02,55.83 22.83,81.83 8.8,26.02 22.52,47.98 41.22,65.9l320.8 -56.25 -2.16 -12.34c-30.08,-10.26 -52.82,-35.25 -68.25,-74.94 -12.71,-40.17 -27.29,-99.08 -43.72,-176.74 -8.35,-39.51 -16.04,-75.26 -23.04,-107.24 -7.03,-31.96 -14.31,-61.41 -21.86,-88.38 -22.65,-80.81 -54.37,-136.71 -95.12,-167.72 -40.78,-31 -99.12,-45.47 -175.08,-43.48l-0.73 -4.12c80.49,-32.46 135.15,-83.38 163.98,-152.75 28.81,-69.34 34.57,-153.37 17.26,-252.08 -22.36,-127.49 -73.28,-216.41 -152.76,-266.78 -79.51,-50.34 -180.92,-64.72 -304.3,-43.08l-547 95.92 257.48 1468.25 296.12 -51.93 -108.91 -621.02 158.35 -27.77c61.69,-10.81 108.43,-2.06 140.26,26.27z"/>
   <polygon class="fil0" points="3455.33,7473.79 3197.85,6005.54 2901.73,6057.47 3159.21,7525.72 "/>
   <path class="fil0" d="M3934.27 6071.39c30.14,-5.28 57.23,-1.89 81.27,10.13 24,12.06 44.97,28.87 62.89,50.44 17.89,21.6 32.48,46.23 43.71,73.95 11.21,27.71 19.23,55.28 24.03,82.68l283.78 -49.76c-26.21,-149.4 -82,-257.99 -167.34,-325.69 -85.36,-67.7 -208.93,-87.36 -370.68,-59 -94.59,16.59 -170.68,46.19 -228.19,88.77 -57.54,42.62 -100.04,98.46 -127.47,167.55 -27.46,69.13 -40.9,151.66 -40.3,247.64 0.57,96.01 11.7,205.67 33.33,329.06 22.36,127.49 47.47,238.6 75.41,333.33 27.91,94.72 63.74,172.17 107.51,232.32 43.74,60.15 96.84,101.01 159.27,122.56 62.39,21.54 138.88,24.4 229.36,8.53 69.92,-12.26 127.77,-34.79 173.62,-67.54 45.83,-32.74 81.5,-81.06 107.07,-144.89l4.11 -0.72 23.8 135.72 217.97 -38.23 -138.84 -791.71 -479.13 84.04 38.22 217.97 195.36 -34.26 26.33 150.12c6.97,39.77 6.87,75.46 -0.3,107.09 -7.17,31.66 -18.32,58.68 -33.46,81.12 -15.14,22.46 -32.5,40.34 -52.06,53.64 -19.59,13.34 -38.28,21.55 -56.09,24.67 -42.5,7.45 -79.46,0.16 -110.87,-21.9 -31.42,-22.04 -58.72,-56.8 -81.89,-104.33 -23.17,-47.51 -43.77,-106.42 -61.73,-176.76 -17.99,-70.31 -34.67,-149.35 -50.06,-237.1 -32.21,-183.69 -39.54,-318.07 -21.94,-403.12 17.58,-85.02 62.01,-133.82 133.31,-146.32z"/>
   <polygon class="fil0" points="5129.15,7180.26 4871.68,5712.01 4575.56,5763.93 4833.04,7232.19 "/>
   <polygon class="fil0" points="5986.71,7029.87 6323.95,6970.72 6066.48,5502.47 5795.03,5550.07 5971.37,6555.64 5967.26,6556.36 5433.11,5613.54 5091.75,5673.41 5349.23,7141.65 5620.67,7094.05 5440.36,6065.86 5444.47,6065.14 "/>
   <path class="fil0" d="M6783.56 5639.56l4.12 -0.72 257.65 635.21 -287.89 50.49 26.13 -684.98zm-48.4 1259.06l13.42 -322.41 390.71 -68.52 122.31 298.61 308.46 -54.09 -646.13 -1400.1 -366.04 64.19 -131.17 1536.41 308.45 -54.09z"/>
   <polygon class="fil0" points="7926.42,6439.6 7711.49,5214 7415.37,5265.92 7672.85,6734.17 8493.36,6590.3 8450.79,6347.64 "/>
   <path class="fil0" d="M1985.55 2294.96c3.88,-10.19 11.86,-19.17 23.97,-26.91 12.1,-7.73 23.6,-11.21 34.48,-10.44 10.88,0.77 22.18,5.94 33.88,15.5 11.72,9.57 24.26,23.39 37.69,41.45 13.42,18.08 28.82,40.72 46.23,67.96 17.41,27.23 31.56,50.84 42.44,70.78 10.88,19.95 18.16,37.15 21.8,51.6 3.65,14.46 3.54,26.79 -0.33,36.99 -3.87,10.2 -11.87,19.17 -23.96,26.91 -12.12,7.74 -23.6,11.22 -34.49,10.45 -10.87,-0.76 -22.12,-5.84 -33.7,-15.22 -11.59,-9.37 -24.15,-23.19 -37.69,-41.45 -13.54,-18.25 -29,-41 -46.41,-68.24 -17.41,-27.23 -31.5,-50.73 -42.26,-70.5 -10.77,-19.75 -18.03,-36.96 -21.8,-51.6 -3.76,-14.64 -3.71,-27.07 0.15,-37.27zm-67.77 124.04c13.73,27.73 30.38,56.92 49.96,87.55 19.83,31.02 39.4,58.49 58.66,82.39 19.29,23.91 39.68,42.06 61.16,54.42 21.5,12.37 44.47,17.67 68.9,15.9 24.45,-1.77 51.99,-12.45 82.63,-32.04 30.64,-19.58 51.88,-40.1 63.77,-61.54 11.88,-21.44 16.71,-44.51 14.5,-69.21 -2.19,-24.7 -10.1,-50.82 -23.71,-78.36 -13.6,-27.54 -30.32,-56.81 -50.14,-87.84 -19.59,-30.64 -39.08,-58 -58.48,-82.11 -19.39,-24.09 -39.85,-42.33 -61.34,-54.7 -21.5,-12.36 -44.65,-17.95 -69.46,-16.75 -24.8,1.2 -52.53,11.6 -83.17,31.18 -30.64,19.59 -51.72,40.39 -63.23,62.39 -11.5,22.02 -16.16,45.37 -13.96,70.06 2.2,24.71 10.17,50.93 23.89,78.64z"/>
   <polygon class="fil0" points="2521.51,2451.44 2422.37,2267.71 2564.61,2190.97 2526.87,2121.03 2384.63,2197.77 2330.91,2098.2 2482.04,2016.66 2444.31,1946.73 2207.83,2074.32 2436.16,2497.48 "/>
   <polygon class="fil0" points="2784.25,1790.44 2504.29,1916.64 2536.95,1989.09 2632.72,1945.9 2797.68,2311.82 2886.08,2271.96 2721.13,1906.05 2816.91,1862.88 "/>
   <polygon class="fil0" points="3424.24,2078.29 3528.66,2046.67 3309.8,1825.86 3375.11,1590.76 3274.56,1621.21 3213.08,1841.07 3211.79,1841.46 3155.98,1657.13 3063.16,1685.24 3202.52,2145.43 3295.33,2117.32 3253.96,1980.68 3272.3,1918.14 "/>
   <path class="fil0" d="M3583.46 1652.18c1.83,-15.01 6.41,-26.55 13.73,-34.65 7.32,-8.08 18.02,-13.52 32.12,-16.32 14.09,-2.79 26.07,-1.84 35.92,2.84 9.85,4.68 18.49,13.62 25.9,26.79 7.42,13.18 14.07,30.62 19.98,52.34 5.91,21.72 12,48.42 18.28,80.13 6.28,31.7 10.85,58.84 13.72,81.37 2.86,22.56 3.36,41.22 1.48,56.01 -1.87,14.78 -6.47,26.23 -13.8,34.32 -7.32,8.09 -18.03,13.52 -32.12,16.32 -14.1,2.78 -26.07,1.84 -35.91,-2.84 -9.85,-4.68 -18.47,-13.5 -25.85,-26.46 -7.37,-12.96 -14.03,-30.4 -19.97,-52.35 -5.96,-21.92 -12.06,-48.75 -18.35,-80.46 -6.28,-31.7 -10.84,-58.72 -13.66,-81.05 -2.82,-22.32 -3.32,-40.99 -1.48,-56zm40.08 366.9c23.41,7.26 52.95,7.37 88.62,0.29 35.67,-7.07 62.95,-18.42 81.81,-34.06 18.87,-15.64 31.78,-35.35 38.74,-59.17 6.96,-23.8 9.12,-51 6.48,-81.61 -2.62,-30.6 -7.52,-63.95 -14.67,-100.07 -7.07,-35.67 -15.24,-68.26 -24.52,-97.77 -9.28,-29.51 -21.68,-53.95 -37.18,-73.31 -15.5,-19.34 -35.03,-32.98 -58.57,-40.91 -23.54,-7.92 -53.15,-8.35 -88.81,-1.29 -35.67,7.07 -62.88,18.75 -81.63,35.05 -18.73,16.31 -31.58,36.36 -38.54,60.15 -6.95,23.82 -9.09,51.13 -6.42,81.95 2.68,30.82 7.55,64.07 14.62,99.73 7.15,36.13 15.35,68.83 24.58,98.11 9.24,29.29 21.62,53.63 37.11,72.97 15.51,19.36 34.97,32.66 58.38,39.92z"/>
   <path class="fil0" d="M4016.17 1703.94l-11.64 -145.67 40.28 -3.22c24.17,-1.93 41.89,2.97 53.19,14.66 11.29,11.72 17.91,29.65 19.84,53.81 1.97,24.62 -2.52,43.23 -13.44,55.79 -10.93,12.6 -26.03,19.65 -45.26,21.18l-42.96 3.44zm119.11 53.31c18.33,-7.31 33.63,-17.32 45.9,-30.02 12.28,-12.68 21.37,-28.5 27.29,-47.44 5.92,-18.93 7.9,-40.71 5.93,-65.33 -1.43,-17.89 -5.08,-35.29 -10.93,-52.17 -5.85,-16.87 -14.46,-31.62 -25.81,-44.21 -11.38,-12.6 -25.78,-22.36 -43.22,-29.31 -17.44,-6.93 -38.48,-9.42 -63.09,-7.46l-169.17 13.51 38.29 479.32 96.66 -7.73 -15.28 -191.33 51.69 -4.12c22.82,-1.82 43.4,-6.39 61.73,-13.72z"/>
   <polygon class="fil0" points="4309.4,1951.09 4406.36,1950.05 4401.24,1469.25 4304.26,1470.28 "/>
   <polygon class="fil0" points="4783.01,1561.64 4786.86,1482.27 4518.48,1469.24 4495.16,1949.51 4770.27,1962.86 4774.13,1883.49 4595.87,1874.84 4602.15,1745.69 4763.58,1753.52 4767.43,1674.16 4606,1666.31 4611.49,1553.31 "/>
   <path class="fil0" d="M5083.93 1653.52c-3.17,25.85 -11.66,43.47 -25.47,52.87 -13.82,9.4 -32.31,12.67 -55.48,9.84l-40.11 -4.9 16.84 -137.7 45.45 5.56c44.56,5.44 64.15,30.23 58.76,74.34zm-191.81 -162.53l-58.35 477.28 96.26 11.76 24.68 -201.87 51.47 6.28c20.05,2.46 33.66,9.55 40.82,21.28 7.15,11.74 10.03,27.01 8.64,45.83l-8.52 91.91c-0.71,9.41 -0.91,18.55 -0.63,27.4 0.27,8.85 2.45,16.92 6.54,24.2l104.28 12.75 0.49 -4.01c-8.33,-5.99 -12.99,-15.84 -14.03,-29.54 -0.15,-13.58 0.89,-33.13 3.1,-58.64 1.13,-12.98 2.11,-24.73 2.95,-35.25 0.83,-10.53 1.35,-20.3 1.55,-29.33 0.59,-27.07 -3.95,-47.29 -13.62,-60.69 -9.67,-13.4 -26.32,-23.34 -49.95,-29.86l0.17 -1.33c27.88,-2.46 49.53,-13.05 64.93,-31.75 15.4,-18.69 25.07,-44.09 28.99,-76.18 5.06,-41.44 -2.32,-73.66 -22.1,-96.66 -19.81,-23 -49.76,-36.96 -89.87,-41.86l-177.8 -21.74z"/>
   <polygon class="fil0" points="5287.02,2032.25 5382.28,2050.36 5457.2,1656.03 5560.41,1675.64 5575.24,1597.57 5273.55,1540.26 5258.72,1618.33 5361.93,1637.93 "/>
   <path class="fil0" d="M2434.26 9123.55c-1.6,14.72 -6.53,31.58 -14.8,50.59 -8.27,19 -18.93,40.54 -31.98,64.61 -15.63,28.81 -29.58,52.41 -41.84,70.78 -12.27,18.38 -24.28,32.04 -36.02,40.98 -11.76,8.95 -23.56,13.53 -35.42,13.74 -11.86,0.21 -25.29,-3.76 -40.28,-11.89l-37.89 -20.56 161.19 -297.16 36.11 19.58c16.18,8.77 27.44,18.84 33.8,30.2 6.34,11.37 8.72,24.4 7.13,39.12zm95.07 -4.36c-0.33,-23.42 -6.95,-44.89 -19.85,-64.4 -10.99,-16.61 -28.09,-31.97 -51.18,-46.08 27.31,-7.91 54.11,-16.5 79.96,-25.87l-87.54 -38.16 157.14 -38.16c0,0 -466.92,-361.41 -646.5,-505.08 0,0 -217.75,44.9 -343.45,47.14l24.68 -56.11c0,0 -188.56,80.81 -410.8,78.57l-114.48 157.13c0,0 271.62,327.75 545.48,516.31l17.96 -56.12c0,0 145.92,-17.95 287.34,-42.65l-47.14 49.38c0,0 142.33,-7.17 312.8,-36.18l-156.99 289.42 134.37 72.89c28.41,15.41 54.25,23.8 77.5,25.19 23.26,1.39 45.23,-3.82 65.92,-15.57 20.68,-11.78 40.72,-30.14 60.14,-55.11 19.41,-24.96 39.18,-55.99 59.3,-93.09 16.91,-31.17 30.44,-60.36 40.59,-87.54 10.14,-27.18 15.06,-52.48 14.74,-75.9z"/>
   <path class="fil0" d="M2805.7 9287.17c-1.35,15.06 -5.75,33.21 -13.18,54.45 -7.44,21.25 -17.54,46.71 -30.33,76.4 -12.78,29.69 -24.38,54.64 -34.79,74.84 -10.41,20.2 -20.58,35.87 -30.5,46.99 -9.92,11.12 -20.2,17.95 -30.8,20.46 -10.63,2.52 -22.53,0.93 -35.73,-4.74 -13.2,-5.69 -22.52,-13.25 -27.99,-22.7 -5.46,-9.43 -7.56,-21.58 -6.3,-36.44 1.27,-14.85 5.65,-33 13.18,-54.45 7.51,-21.44 17.68,-47.01 30.47,-76.7 12.78,-29.7 24.32,-54.53 34.65,-74.53 10.32,-19.99 20.49,-35.65 30.5,-46.99 10.01,-11.33 20.32,-18.25 30.94,-20.77 10.61,-2.51 22.5,-0.94 35.71,4.75 13.19,5.68 22.52,13.24 27.99,22.68 5.47,9.44 7.53,21.7 6.18,36.75zm91.62 -6.74c-1.82,-24.72 -10.18,-47.02 -25.09,-66.89 -14.91,-19.86 -39.07,-36.99 -72.47,-51.37 -33.4,-14.38 -62.44,-20.16 -87.12,-17.35 -24.67,2.83 -46.61,12.07 -65.83,27.75 -19.22,15.68 -36.45,36.98 -51.71,63.89 -15.26,26.91 -30.08,57.07 -44.46,90.47 -14.56,33.82 -26.33,65.41 -35.31,94.79 -8.99,29.37 -12.57,56.42 -10.75,81.15 1.81,24.74 10.3,46.73 25.48,65.97 15.18,19.24 39.47,36.06 72.87,50.44 33.4,14.38 62.31,20.48 86.71,18.28 24.42,-2.2 46.22,-11.13 65.44,-26.81 19.21,-15.67 36.41,-36.87 51.57,-63.59 15.16,-26.7 30.03,-56.96 44.59,-90.78 14.38,-33.4 26.11,-64.89 35.19,-94.46 9.06,-29.58 12.69,-56.73 10.88,-81.47z"/>
   <path class="fil0" d="M3248.54 9509.77c5.53,-16.61 10.27,-34.78 14.25,-54.52 3.97,-19.72 3.99,-39.36 0.09,-58.88 -3.92,-19.51 -13.58,-37.75 -28.97,-54.72 -15.42,-16.95 -39.52,-30.9 -72.32,-41.82 -34.51,-11.48 -63.93,-14.77 -88.28,-9.87 -24.34,4.92 -45.43,16 -63.23,33.25 -17.81,17.25 -33.18,39.95 -46.09,68.05 -12.91,28.12 -25.11,59.43 -36.59,93.94 -11.64,34.93 -20.68,67.4 -27.12,97.43 -6.45,30.04 -7.73,57.3 -3.81,81.78 3.91,24.5 14.25,45.68 31.01,63.56 16.76,17.87 42.39,32.56 76.9,44.05 30.24,10.07 56.4,13.57 78.47,10.52 22.07,-3.06 41.1,-11.16 57.07,-24.3 15.97,-13.14 29.56,-30.14 40.76,-51.02 11.21,-20.87 20.92,-43.66 29.15,-68.37l-92.01 -30.64c-8.22,24.72 -16.35,44.13 -24.36,58.26 -8.03,14.12 -15.97,24.49 -23.84,31.1 -7.87,6.6 -15.79,10.12 -23.74,10.55 -7.95,0.43 -15.99,-0.7 -24.06,-3.4 -9.81,-3.26 -17.77,-8.15 -23.86,-14.68 -6.12,-6.53 -9.67,-16.47 -10.65,-29.82 -1,-13.35 0.86,-31.05 5.62,-53.13 4.74,-22.08 12.86,-50.37 24.35,-84.88 10.78,-32.36 20.74,-59.46 29.9,-81.26 9.14,-21.79 18.15,-38.9 27.03,-51.32 8.86,-12.43 18.06,-20.49 27.57,-24.18 9.5,-3.68 20.01,-3.62 31.52,0.21 20.86,6.95 32.72,19.3 35.58,37.04 2.84,17.75 -1.27,43.23 -12.34,76.46l92.01 30.63z"/>
   <polygon class="fil0" points="3512.26,9683.92 3463.37,9891.73 3557.77,9913.94 3667.89,9445.89 3573.5,9423.68 3531.39,9602.64 3421.26,9576.73 3463.37,9397.77 3368.97,9375.56 3258.84,9843.62 3353.23,9865.83 3402.13,9658.01 "/>
   <polygon class="fil0" points="4003.23,9638.18 4094.48,9983.29 4204.57,9992.11 4242.98,9512.81 4154.37,9505.71 4128.06,9833.97 4126.72,9833.87 4036.22,9496.25 3924.79,9487.31 3886.38,9966.62 3974.99,9973.72 4001.89,9638.06 "/>
   <polygon class="fil0" points="4427.56,9512.43 4330.59,9512.1 4328.99,9992.95 4425.97,9993.26 "/>
   <polygon class="fil0" points="4785,9495.39 4516.84,9512.37 4547.24,9992.24 4822.13,9974.83 4817.1,9895.53 4638.99,9906.82 4630.81,9777.77 4792.13,9767.55 4787.1,9688.25 4625.8,9698.46 4618.64,9585.56 4790.02,9574.7 "/>
   <polygon class="fil0" points="5298.62,9411.32 5034.86,9462.6 5126.62,9934.6 5396.99,9882.03 5381.83,9804.03 5206.65,9838.08 5181.97,9711.16 5340.63,9680.32 5325.46,9602.31 5166.81,9633.15 5145.21,9522.1 5313.79,9489.33 "/>
   <path class="fil0" d="M5602.6 9528.04c-8.97,14.1 -24.66,24.42 -47.05,31l-38.78 11.38 -39.06 -133.12 43.93 -12.89c43.08,-12.64 70.89,2.37 83.39,45.02 7.33,24.99 6.51,44.53 -2.45,58.62zm95.06 -18.07c6.74,-23.26 5.56,-50.41 -3.54,-81.42 -11.76,-40.07 -31.28,-66.74 -58.56,-80.03 -27.31,-13.28 -60.33,-14.24 -99.1,-2.86l-171.89 50.43 135.36 461.39 93.05 -27.31 -57.25 -195.14 49.76 -14.6c19.38,-5.69 34.68,-4.56 45.9,3.38 11.21,7.94 19.9,20.82 26.08,38.67l28.56 87.77c3.08,8.92 6.5,17.39 10.27,25.41 3.76,8.02 8.94,14.58 15.58,19.65l100.8 -29.58 -1.13 -3.88c-10.01,-2.2 -18.2,-9.4 -24.57,-21.56 -5.51,-12.42 -12.31,-30.78 -20.37,-55.08 -4.1,-12.37 -7.85,-23.54 -11.24,-33.55 -3.4,-9.99 -6.79,-19.17 -10.18,-27.54 -10.17,-25.09 -22.36,-41.87 -36.53,-50.34 -14.18,-8.47 -33.41,-11.02 -57.69,-7.65l-0.37 -1.29c24.62,-13.3 40.32,-31.6 47.07,-54.87z"/>
   <path class="fil0" d="M5982.63 9389.58c-7.37,15 -21.82,26.99 -43.36,35.98l-37.29 15.56 -53.44 -128.02 42.26 -17.65c41.43,-17.29 70.71,-5.42 87.83,35.59 10.03,24.03 11.36,43.54 4,58.53zm92.5 -28.4c4.15,-23.86 -0.01,-50.71 -12.46,-80.54 -16.08,-38.53 -38.41,-62.89 -67,-73.11 -28.59,-10.19 -61.52,-7.52 -98.81,8.05l-165.31 69 185.22 443.73 89.49 -37.35 -78.35 -187.68 47.86 -19.97c18.65,-7.78 33.97,-8.35 45.99,-1.69 12.02,6.66 22.08,18.51 30.18,35.57l38.03 84.12c4.04,8.53 8.38,16.56 12.99,24.13 4.62,7.56 10.49,13.49 17.65,17.8l96.95 -40.46 -1.56 -3.72c-10.19,-1.11 -19.12,-7.35 -26.79,-18.74 -6.85,-11.74 -15.62,-29.23 -26.29,-52.52 -5.43,-11.83 -10.39,-22.54 -14.86,-32.1 -4.48,-9.55 -8.87,-18.31 -13.15,-26.27 -12.86,-23.82 -26.81,-39.15 -41.84,-46.01 -15.02,-6.86 -34.41,-7.28 -58.17,-1.26l-0.52 -1.24c23.02,-15.93 36.61,-35.83 40.76,-59.71z"/>
   <polygon class="fil0" points="6314.66,8999.61 6081.33,9132.85 6319.76,9550.41 6558.95,9413.83 6519.54,9344.82 6364.56,9433.31 6300.45,9321.03 6440.81,9240.88 6401.4,9171.87 6261.05,9252.01 6204.95,9153.77 6354.07,9068.61 "/>
   <polygon class="fil0" points="6731.75,9289.65 6450.72,8899.49 6372.03,8956.18 6653.05,9346.34 "/>
   <path class="fil0" d="M6989.18 8944.19c-11.62,-20.64 -25.66,-41.07 -42.11,-61.25l-75.16 61.27c16.45,20.19 28.49,37.46 36.12,51.79 7.64,14.34 12.14,26.61 13.49,36.79 1.35,10.2 0.09,18.77 -3.81,25.71 -3.9,6.95 -9.17,13.12 -15.76,18.5 -8.01,6.52 -16.41,10.62 -25.19,12.27 -8.78,1.66 -19.07,-0.66 -30.88,-6.98 -11.8,-6.3 -25.76,-17.37 -41.85,-33.22 -16.1,-15.83 -35.63,-37.85 -58.61,-66.04 -21.55,-26.45 -39.09,-49.37 -52.59,-68.78 -13.5,-19.4 -23.11,-36.18 -28.85,-50.34 -5.74,-14.13 -7.63,-26.21 -5.64,-36.23 1.97,-10.01 7.67,-18.85 17.06,-26.51 17.05,-13.9 33.83,-17.29 50.34,-10.19 16.51,7.12 35.83,24.24 57.95,51.38l75.17 -61.27c-11.06,-13.57 -23.86,-27.31 -38.39,-41.24 -14.53,-13.92 -31.1,-24.46 -49.68,-31.62 -18.57,-7.16 -39.16,-8.77 -61.73,-4.85 -22.57,3.92 -47.26,16.8 -74.05,38.64 -28.19,22.98 -46.73,46.06 -55.63,69.24 -8.91,23.19 -10.85,46.92 -5.82,71.21 5.03,24.28 15.95,49.42 32.77,75.37 16.83,25.98 36.72,53.05 59.7,81.24 23.26,28.53 45.83,53.57 67.74,75.1 21.9,21.54 44.24,37.23 67.01,47.04 22.77,9.82 46.2,12.44 70.27,7.87 24.08,-4.58 50.22,-18.34 78.4,-41.32 24.71,-20.13 41.67,-40.35 50.92,-60.63 9.25,-20.27 12.6,-40.68 10.06,-61.2 -2.54,-20.52 -9.6,-41.11 -21.22,-61.75z"/>
   <polygon class="fil0" points="6972.04,8462.51 7095.23,8598.97 7011.26,8674.78 6888.05,8538.34 6816.08,8603.31 7138.3,8960.21 7210.28,8895.22 7067.23,8736.77 7151.19,8660.95 7294.26,8819.41 7366.24,8754.42 7044.01,8397.53 "/>
   <polygon class="fil0" points="7366.05,8195.86 7310.57,8138.97 7090.74,8353.4 7146.22,8410.29 7221.43,8336.93 7501.7,8624.24 7571.11,8556.53 7290.85,8269.22 "/>
   <polygon class="fil0" points="7651.3,8350.26 7715.08,8412.18 7779.81,8345.5 7716.03,8283.57 "/>
   <polygon class="fil0" points="4082.98,3742.79 4078.25,3743.61 4048.17,4532.09 4379.56,4473.97 "/>
   <path class="fil0" d="M2892.05 5132.52c59.94,-10.51 106.27,-29.19 138.99,-56.09 32.69,-26.85 55.55,-65.86 68.55,-116.93 13,-51.08 16.28,-115.89 9.81,-194.47 -6.46,-78.54 -19.79,-175.44 -39.99,-290.65 -16.88,-96.23 -34.87,-180.11 -53.89,-251.61 -19.05,-71.45 -42.65,-129.54 -70.81,-174.23 -28.19,-44.65 -63.73,-75.82 -106.68,-93.53 -42.97,-17.66 -96.78,-20.84 -161.48,-9.5l-144.39 25.33 208.38 1188.26 151.5 -26.57z"/>
   <path class="fil0" d="M1406.13 5450.28c49.38,-80.81 83.81,-73.33 65.85,-170.61 -17.96,-97.28 -47.89,-164.62 1.49,-219.99 0,0 49.38,59.86 109.25,119.71 59.85,59.87 82.31,110.75 65.84,182.59 -16.46,71.83 -56.87,98.77 -91.29,125.7 -34.43,26.94 -23.95,61.37 -71.83,109.25 -47.89,47.9 -86.8,58.37 -86.8,58.37 0,0 -41.9,-124.21 7.49,-205.02zm1299.82 -1768.56c118.35,-20.75 217.21,-18.15 296.58,7.77 79.35,25.96 145.47,71.29 198.3,136.01 52.83,64.77 95.2,146.4 127.12,244.88 31.91,98.52 58.8,210.11 80.66,334.75 26.01,148.35 39.54,278.95 40.64,391.78 1.08,112.88 -14.26,208.67 -45.97,287.42 -31.75,78.76 -81.65,142.03 -149.72,189.73 -68.1,47.74 -158.94,81.54 -272.55,101.47l-537.33 94.23 -296.38 -1690.08 558.63 -97.97zm1112.52 -195.09l421.34 -73.89 743.76 1611.63 -355.07 62.27 -140.79 -343.73 -449.74 78.87 -15.43 371.12 -355.06 62.27 150.99 -1768.53zm1099.91 -100.18c78.71,-98.35 199.33,-161.83 361.88,-190.33 75.74,-13.28 147.03,-17.24 213.84,-11.88 66.82,5.36 126.75,22.52 179.81,51.42 53.03,28.93 97.65,69.9 133.79,122.93 36.14,53.05 61.25,119.79 75.37,200.27l8.31 47.33 -326.65 57.29c-14.12,-80.49 -39.18,-139.91 -75.19,-178.35 -36.02,-38.39 -87.16,-51.8 -153.45,-40.18 -37.87,6.64 -68.48,17.73 -91.77,33.18 -23.32,15.48 -40.88,33.62 -52.69,54.37 -11.83,20.8 -18.41,43.49 -19.76,68.12 -1.4,24.64 0.15,49.61 4.58,74.84 9.13,52.07 27.83,93.93 56.18,125.56 28.3,31.63 81.39,56.1 159.25,73.33l282.67 67.54c69.66,17.07 127.71,37.38 174.16,60.95 46.41,23.58 84.96,50.98 115.67,82.19 30.68,31.22 54.49,67.3 71.44,108.24 16.93,40.95 29.97,87.46 39.1,139.54 31.28,178.34 2.34,317.19 -86.75,416.57 -89.13,99.42 -225.99,165.28 -410.62,197.65 -192.54,33.77 -337.53,16.13 -435.05,-53.01 -97.51,-69.09 -159.97,-181.77 -187.36,-338l-12.04 -68.64 340.86 -59.78 8.71 49.7c6.93,39.47 16.36,74.82 28.35,106.04 11.96,31.26 28.57,56.41 49.83,75.44 21.23,19.07 47.53,32.34 78.96,39.83 31.4,7.53 69.2,7.38 113.39,-0.37 52.08,-9.13 96.04,-34.3 131.92,-75.59 35.84,-41.25 47.58,-97.4 35.12,-168.41 -6.64,-37.87 -17.52,-69.7 -32.61,-95.53 -15.12,-25.79 -36.41,-47.68 -63.97,-65.64 -27.54,-17.93 -62.25,-32.58 -104.08,-43.97 -41.86,-11.34 -92.83,-21.53 -152.96,-30.51 -80.17,-11.94 -150.52,-28.08 -211,-48.4 -60.51,-20.27 -112.83,-47.31 -156.95,-81.05 -44.15,-33.73 -79.53,-75.5 -106.15,-125.34 -26.65,-49.8 -46.03,-109.42 -58.21,-178.88 -29.32,-167.24 -4.66,-300.09 74.07,-398.49zm1788.47 489.48c98.77,-26.94 175.1,22.44 199.79,87.54 24.69,65.1 8.98,74.08 29.18,83.05 20.2,8.99 38.16,26.94 38.16,62.86 0,35.91 53.88,123.46 53.88,123.46 0,0 -71.84,-2.24 -130.2,-20.21 -58.36,-17.96 -94.28,-49.38 -116.73,-101.01 -22.44,-51.63 -65.1,-62.85 -148.16,-76.32 -83.05,-13.47 -143.67,-71.84 -143.67,-71.84 42.65,0 118.97,-60.6 217.75,-87.54zm-5831.98 2053.24c22.45,-37.41 46.39,-37.41 58.36,5.99 11.98,43.39 86.8,28.43 176.59,23.94 89.79,-4.49 350.94,-65.1 481.14,-80.81 0,0 56.12,42.65 318.76,17.95 262.64,-24.68 399.57,-67.34 399.57,-67.34l-109.99 -44.89 5540.15 -992.21c0,0 -389.09,-1496.53 -1816.78,-2193.91 127.21,-20.95 236.45,-5.98 236.45,-5.98 -314.27,-280.6 -758.74,-314.27 -758.74,-314.27 69.58,56.11 94.28,121.22 94.28,121.22 -942.81,-329.99 -1975.42,-53.88 -1975.42,-53.88 65.1,-83.06 190.81,-168.36 190.81,-168.36 0,0 -1461.36,154.89 -2269.49,1488.3l199.79 -87.55c0,0 -584.4,723.57 -695.14,1810.06l-46.39 -97.28c0,0 -26.93,68.84 -41.9,88.3 -14.96,19.45 -58.37,29.92 -76.33,113.73 -17.95,83.81 20.96,480.39 20.96,480.39 0,0 50.88,-5.99 73.33,-43.41z"/>
   <path class="fil0" d="M13878.4 2977.64c-444.25,18.85 -984.43,105.35 -1528.43,347.06l-57.68 25.65 31.98 -9.88c47.41,-14.72 800.96,-245.83 1554.13,-362.83zm1020.74 7647.51c1.79,5.52 4.24,9.69 6.38,12.42 5.39,-4.82 12.44,-15.66 11.52,-32.91l11.62 -821.12 65.13 4.05c6.48,0.26 651.57,37.14 878.59,-202.85 181.32,-191.55 240.67,-836.81 250.88,-1122.31 -457.74,-147.48 -1692.35,-143.77 -1705.12,-143.79l-243.35 1.1 212.98 -117.74c511.48,-282.61 1534.8,-132.1 1801.54,-86.34l224.98 -1377.81c-410.64,-151.06 -1887.52,-185.12 -1902.92,-185.46l-235.47 -5.13 207.35 -111.79c538.86,-290.47 1693.51,-79.88 1979.68,-21.34l199.2 -1085.43c-847.95,-360.14 -2129.59,-330.83 -2142.68,-330.4l-274.74 7.17 244.85 -124.81c817.12,-416.59 1994.04,-24.26 2290.73,86.73l219.93 -944.79c-928.8,-343.04 -2413.16,-304.15 -2428.34,-303.77l-311.75 9.11 284.46 -127.91c1081.08,-486.32 2168.42,-61.9 2467.92,75.19l108.41 -783.91c-442.71,-362.47 -2174.99,-402.36 -2192.75,-402.72l-259.92 -5.32 234.19 -112.88c899.86,-433.58 1824.03,-83.72 2180.2,87.06 -451.78,-911.94 -2114.6,-859.44 -2132.24,-858.73l-69.39 2.7 84.26 -1171.07c14.45,-77.82 -3.6,-157.64 -49.46,-219.09 -36.47,-48.82 -87.36,-80.92 -136.25,-86.04 -52.25,-5.64 -111.52,18.11 -158.75,63.11 -58.6,55.85 -89.41,135.51 -84.63,218.47l0.2 3.42 -59.06 1185.18 -50.98 7.12c-982.57,136.22 -1649.15,447.52 -1927.65,900.28 -175.44,285.19 -153.89,557.4 -131.13,678.85 1310.05,-552.59 2577.48,-249.8 2590.38,-246.7l-24.84 121.77c-741.03,-119.41 -2209.84,295.4 -2515.58,385.57l238.14 944.42c1383.29,-432.22 2132.37,-50.78 2163.99,-34.11l379.51 200.13 -420.72 -84.17c-478.47,-95.6 -1759.23,228.06 -2044.84,303.04l217.37 1008.95c887.26,-353.81 2070.86,-186.03 2122.1,-178.62l569.14 83.43 -573.81 40.18c-827.31,57.9 -1845.85,302.88 -2099.16,366.26l277.78 1160.35c608.36,-215.83 1370.64,-163.44 1794.75,-108.09 119.91,6.44 230.94,23.25 327.05,53.56l-31.4 120.18c-3.92,-0.82 -129.09,-26.27 -325.12,-50.93 -606.47,-25.46 -1468.13,222.46 -1692.18,290.68l351.27 1467.22c1257.73,-302.54 1570.94,-17.37 1602.93,16.7l106.13 112.94 -154.79 -8.29c-711.4,-38.39 -1285.11,142.95 -1464.89,207.85 296.52,631.36 984.28,463.5 1014.33,455.86l72.87 -18.62 51.2 833.95zm8.81 139.3c-5.16,0.21 -10.32,0.09 -15.44,-0.45 -54.4,-5.66 -100.79,-51.6 -115.61,-114.49l-1.53 -10.45 -42.65 -695.29c-215.31,30.78 -847.26,59.97 -1112.6,-601.53l-22.73 -56.56 56.22 -23.86c23.39,-9.86 496.91,-206.71 1175.08,-240.56 -234.65,-22.78 -608.97,-5.46 -1188.21,139.14l-60.92 15.22 -407.35 -1701.64 54.67 -17.75c31.6,-10.23 441.78,-141.88 920.68,-231.83 -315.17,12.55 -640.05,56.9 -921.8,168.48l-66.65 26.31 -339.28 -1417.32 58.88 -15.37c9.31,-2.4 721.57,-187.8 1485.67,-304.49 -430.24,-1.41 -984.78,44.75 -1433.47,241.71l-69.74 30.61 -274.06 -1271.92 56.75 -15.58c50.48,-13.86 989.41,-269.2 1669.32,-327.79 -358.86,-54.87 -927.11,-60.04 -1682.4,186.18l-63.28 20.59 -299.57 -1187.93 20.11 -6.17 -22.06 -63.35c-5.84,-16.75 -139.84,-414.65 124.98,-847.93 296.99,-485.72 958.71,-806.49 1967.23,-953.86l53.62 -1076.04c-5.84,-118.25 38.94,-231.76 123.14,-312.07 74.39,-71.03 168.18,-106.27 257.57,-96.96 83.97,8.74 165.26,58.11 222.9,135.29 65.86,88.25 92.3,202.02 72.77,312.72l-73.34 1023.65c355.4,-1.95 1920.04,49.82 2247.19,1098.95l49.26 157.96 -141.11 -86.4c-10.29,-6.35 -955.05,-573.26 -1943.56,-267.37 543.57,29.46 1669.66,128.11 2003.31,445.47l23.07 22.04 -141.22 1020.92 -78.38 -41.22c-11.22,-5.88 -1032.8,-531.48 -2108.78,-229.39 518.77,9.09 1490.84,64.31 2171.2,331.93l49.96 19.59 -277.26 1191.18 -67.68 -27.89c-12.13,-5 -1091.57,-442.53 -1942.76,-231.85 459.74,15.22 1287.75,82.67 1899.59,357.66l44.46 20.04 -240.16 1308.4 -63.11 -14.22c-11.57,-2.58 -976.42,-215.98 -1622.18,-108.56 502.51,21.57 1375.04,76.38 1634.17,203.36l41.43 20.36 -260.79 1597.23 -62.93 -12.18c-10.18,-1.97 -846.77,-160.93 -1442.47,-50.24 431.63,10.87 1123.79,46.31 1423.05,161.99l40.6 15.66 -0.86 43.65c-0.79,39.47 -22.66,971.65 -286.16,1250.09 -221.98,234.43 -729.86,247.22 -911.56,243.68l-9.85 688.29c2.57,45.22 -15.4,92.25 -49.46,124.66 -24.2,23.12 -54.09,36.35 -83.94,37.55z"/>
   <path class="fil0" d="M9907.44 5234.18c-48.6,-25.63 -67.76,-68.22 -52.37,-116.69 7.69,-24.22 48.5,-33.06 81.66,-15.42 41.33,22.05 85.23,41.81 121.18,70.32 74.72,59.2 152.29,116.12 214.56,188.31 -1.51,1.35 -3.04,2.7 -4.56,4.05 -29.94,9.35 -47.51,-0.63 -65,-26.38 -28.73,-42.31 -72.75,-70.16 -121.18,-90.94 -4.21,-0.31 -8.04,-1.58 -11.5,-3.86 -8.65,-27.49 -16.37,-55.93 -57.89,-46.65 -5.2,3.36 -10.65,6.11 -16.83,7.41 -25.05,-0.19 -33.28,-29.62 -56.63,-29.71 14.08,7.69 35.89,9.97 34.4,34.15 -29.39,22.64 -46.15,-14.86 -70.86,-13.44 10.17,5.89 26.73,4.82 27.2,21.89 -4.11,9.57 -6.14,21.54 -22.19,16.98z"/>
   <path class="fil0" d="M10949.23 5097.7c5.5,-3.46 11.01,-6.98 16.53,-10.43 13.97,-6.49 31.3,-8.48 37.25,-25.5 11.46,-5.95 22.96,-11.88 34.43,-17.8 13.04,-2.62 24.8,-9.81 37.81,-11.56 19.7,-2.66 23.88,6.55 15.68,22.52 -3.52,4.98 -7.98,9.16 -12.83,12.92 -21.48,45.61 -80.71,42.51 -110.61,77.2 -4.97,6.24 -10.32,12.16 -16.31,17.54 -34.09,32.94 -76.18,54.83 -118.36,76.69 -21.9,-5.01 -39.79,-1.47 -54.29,17.29 -12.67,16.44 -31.7,24.54 -53.69,25.27 -4.31,-0.7 -8.08,-2.44 -11.21,-5.32 48.53,-49.5 106.81,-87.92 163.31,-128.31 40.16,3.78 53.91,-26.35 72.29,-50.51z"/>
   <path class="fil0" d="M10124.88 6115.67c45.49,-76.56 64.07,-163.95 108.2,-241.07 11.68,6.53 16.37,18.56 24.7,27.78 17.55,23.72 11.19,44.91 -5.72,66.64 -21.54,27.69 -34.15,59.74 -45.84,92.01 -1.17,5.96 -4.12,11.15 -7.82,15.94 -9.69,9.43 -15.62,21.35 -22.8,32.4 -3.55,4.58 -7.92,8.33 -12.83,11.49 -11.31,4.76 -17.93,20.31 -33.29,15.08 -10.64,-3.62 -9.37,-12.2 -4.59,-20.27z"/>
   <path class="fil0" d="M10314.22 5738.05c14.41,-37.03 51.82,-61.01 63.15,-99.75 -2.94,-7.92 1.65,-10.96 8.84,-12.29 41.08,38.17 55.93,40.01 108.49,13.62 15.84,-7.95 31.48,-14.73 34.27,11.78 -27.49,15.05 17.83,39.62 -7.92,54.86 -4.46,-0.31 -8.24,-2.09 -11.21,-5.32 -1.74,4.9 5.88,1.71 5.48,5.79 -6.5,23 -27.94,19.8 -45.42,23.5l0 -0.53c-18.19,-20.27 -36.61,-24.24 -56.8,-1.93 -5.89,6.46 -14.41,9.4 -23.6,6.04 -0.97,-1.64 -2.66,-2.5 -2.72,-2.81 -1.43,-5.96 -3.65,-6.31 -3.24,0.09 0.7,10.58 -3.23,18.97 -10.26,26.58 -26.61,20.3 -33.57,-19.29 -54.63,-16.07 -1.53,-1.17 -2.98,-2.37 -4.44,-3.57z"/>
   <path class="fil0" d="M10288.35 5559.34c-79.51,-76.27 -158.88,-152.7 -244.12,-223.36 -2.6,-2.15 -3.58,-4.44 -2.98,-6.85 0.6,-2.47 1.34,-3.71 2.07,-3.71 7.47,-5.12 15.99,-6.14 24.82,-5.57 4.06,0.41 8.05,1.4 11.85,2.66 12.2,7.51 24.71,7.26 37.44,1.11 18.15,-2.47 20.56,13.08 28.45,22.36 20.13,-0.06 -26.49,15.8 3.8,13.4 3.86,1.3 6.65,3.55 8.55,6.91 9.63,10.07 -8.73,31.96 16.73,35.1 11.34,-1.39 20.88,-10.17 33.23,-7.26 12.51,7.22 21.73,17.29 28.63,29.42 -8.36,21.42 -11.44,38.52 13.97,55.69 24.96,16.89 41.26,43.49 41.3,75.36 -1.23,1.58 -2.47,3.17 -3.73,4.75z"/>
   <path class="fil0" d="M10876.44 5267.44c-54.01,51.72 -108.01,103.45 -162.04,155.2 -8.81,7.01 -12.42,21.5 -28.67,17.74 -8.01,-4.24 -12.58,-10.26 -11.21,-19.35 7.98,-15.87 15.84,-31.86 29.56,-44.37 34.84,-4.75 43.55,-32.25 55.23,-57.14 0.16,-5.86 1.71,-11.28 5.22,-16.13 18.91,-6.2 29.56,-16.13 17.9,-36.05 2.82,-18.97 16.41,-20.55 32.5,-18.18 10.61,0.7 20.97,0.35 30.95,-3.92 31.07,-13.34 31.32,-13.12 30.56,22.2z"/>
   <path class="fil0" d="M10045.37 5326.69c-0.38,3.08 -0.76,6.18 -1.14,9.29 -45.61,-33.92 -91.19,-67.88 -136.79,-101.8 6.3,-5.92 12.63,-11.79 18.93,-17.68 14,-5.82 29.58,29.02 42.64,-1.49 9.19,-6.74 22.58,-6.62 29.8,-16.53 3.01,-2.53 5.95,-5.1 8.97,-7.63 27.17,10.39 47.9,27.91 63.28,51.28 2.98,0.1 5.95,0.13 8.93,0.19 2.09,36.88 2.09,36.88 -45.23,32.4 -3.54,0.39 -9.43,-2.43 -10.13,2.44 -0.69,5.16 5.45,8.55 8.65,12.8 7.85,11.15 21.54,20.56 12.1,36.74z"/>
   <path class="fil0" d="M10252.26 5902.38c-19.63,-1.05 -17.67,-15.48 -19.19,-27.78 19.99,-49.26 41.86,-97.56 81.15,-136.54l2.12 2.37c9.59,5.7 13.49,14.88 16.79,24.52 16.57,29.71 8.84,57.23 -8.39,83.94 -9.19,15.04 -10.7,35.86 -33.67,40.64 -19.54,-19.32 -22.52,5.98 -33,11.05 -1.9,0.63 -3.86,1.2 -5.8,1.8z"/>
   <path class="fil0" d="M11037.81 6246.08c-57.11,-50.71 -114.25,-101.42 -171.39,-152.13 -5.66,-11.79 -26.95,-17.52 -19.45,-33.38 7.51,-15.74 23.94,-11.15 38.07,-6.91 19.58,6.84 33.06,20.05 42.89,37.03 13.62,16.13 31.35,28.67 43.87,45.77 4.75,5.88 9.29,11.98 14.45,17.54 27.3,24.84 60.23,45.27 71.45,82.55l-0.41 0.29c0.64,16.63 -9.43,12.88 -19.47,9.25z"/>
   <path class="fil0" d="M10712.46 5963.35c-66.87,-54.38 -129.86,-112.28 -182.16,-179.91 2.86,-3.36 6.56,-5.32 11.02,-6.11 20.72,5.16 42.09,9.03 57.37,25.27 1.67,4.69 1.67,9.66 2.47,14.48 5.95,-0.98 2.05,-5.7 3.58,-8.55 1.23,-14.22 -13.08,-22.27 -15.21,-35.1 -0.83,-6.2 0.39,-11.91 4.24,-17.07 3.74,-2.35 7.83,-3.21 12.3,-2.67 29.96,12.16 31.29,36.53 29.58,62.17 1.64,29.37 14.18,50.59 47.13,56.7 13.4,12.8 5.76,45.11 39.95,38.77 13.42,15.08 4.36,29.5 -1.34,44.06 -2.12,3.52 -5.16,6.11 -8.93,7.95z"/>
   <path class="fil0" d="M10876.44 5267.44c-5.51,-13.66 -6.21,-6.4 -21,-7.69 -14.66,-1.31 -29.62,7.98 -43.52,-0.64 -6.22,-17.07 -1.43,-26.7 19.25,-25.59 39.11,-25.88 78.2,-51.79 117.29,-77.64 17.27,-2.31 17.39,10.13 13.4,18.34 -5.66,11.59 -6.52,24.22 -12.16,35.57 -18.12,26.39 -39.44,49.16 -73.27,57.65z"/>
   <path class="fil0" d="M10886.76 6064.58c-10.61,-1.87 -22.46,-14.42 -31.49,-2.96 -9.91,12.58 12.46,19.71 11.15,32.32 -53.66,-41.05 -105.7,-83.81 -153.97,-130.6 1.36,-1.05 2.69,-2.15 3.99,-3.27 31.55,-8.99 47.73,11.88 65.43,29.98 12.48,13.23 25.75,25.43 45.49,30.5 -2.41,-8.68 -11.08,-15.36 -6.85,-24.96 19.42,-15.42 41.72,-16.03 65.06,-11.5 8.52,8.65 19.64,15.56 22.3,28.35 1.7,9.97 1.23,19.61 -4.85,28.41 -4.98,8.15 -8.42,17.33 -16.28,23.73z"/>
   <path class="fil0" d="M10316.32 5841.97c22.45,-23.02 16.34,-49.12 9.02,-75.35 11.03,-17.08 33.6,11.75 43.49,-9.85 2.15,-10.67 7.03,-21.64 5.7,-31.9 -1.37,-10.67 -3.05,-19.39 8.92,-24.07 2.96,-1.17 9.76,0.41 11.06,2.66 5.89,10.26 -2.82,18.15 -6.52,26.87 8.77,10.64 25.03,17.81 18.49,35.6 -30.08,47.89 -61.57,94.86 -99.29,137.81 -17.61,-23.3 23,-38.92 9.13,-61.76z"/>
   <path class="fil0" d="M10967.06 6142.31c-14.98,-14.32 -30,-28.67 -45.01,-42.98 8.01,-10.39 -7.03,-31.52 17.73,-34.12 31.65,38.64 74.4,67.79 103.29,108.9 13.49,19.25 33.83,36.52 14.63,62.43 -26.67,-26.03 -53.37,-52.04 -80.03,-78.04 2.68,-9.09 1.42,-15.77 -10.61,-16.19z"/>
   <path class="fil0" d="M10486.49 5516.08c24.29,-25.91 40.98,-58.12 72.35,-78.18 22.04,12.04 44.79,-3.04 67.12,1.46 33.51,23.6 34.65,35.16 7.13,70l0.54 0c-27.4,8.71 -20.3,-9.02 -19.07,-22.08 -1.17,-0.07 1.93,-4.12 -1.49,-1.58 -1.45,1.1 -0.94,4.72 -1.51,7.25 -4.6,11.24 -11.88,19.41 -25.47,20.59 -9.31,-0.16 -18.59,-2.06 -28,-0.63 -3.78,0.32 -7.51,0.22 -11.28,0 -15.9,-2.95 -29.71,3.93 -43.99,8.58 -6.36,0.7 -12.03,-0.5 -16.31,-5.41z"/>
   <path class="fil0" d="M10272.47 5360.68c41.05,38.07 89.77,68.57 124.52,112.89 2.5,1.93 3.54,4.02 3.17,6.33 -0.48,2.4 -1.02,3.58 -1.75,3.58 -18.5,7.75 -34.72,-6.18 -52.51,-4.98 -12.77,-10.74 -9.29,9.82 -17.39,8.21 -22.96,0.19 -29.35,-13.33 -29.71,-31.93 5.16,-26.57 -17.04,-37.21 -33.45,-51.12 -11.05,-7.36 -29.11,-5.23 -33.44,-21.83 7.88,-13.9 24.8,-12.1 36.77,-18.91l3.8 -2.25z"/>
   <path class="fil0" d="M10316.32 5841.97c13.4,2.25 18.87,7.85 9.62,19.98 -9.62,12.58 -19.61,25 -18.75,41.78 -24.74,51.28 -67.94,92.24 -89.93,145.04 -9.81,1.65 -2.03,23.09 -19.83,15.87 4.75,-37.56 26.55,-69.43 46.03,-99.84 14.54,-22.7 16.85,-40.16 8.8,-62.43l-0.09 0c10.61,-8.65 25.21,-9.57 36.49,-16.95 20.23,-8.17 16.63,-29.99 27.65,-43.45z"/>
   <path class="fil0" d="M10957.94 5139.37c1.49,-2.37 2.37,-5.51 4.56,-7.07 35.85,-26.07 82.45,-36.51 113.14,-70.12 19.07,13.34 42.32,25.38 18.41,52.29 -16.54,13.18 -32.79,26.77 -53.53,33.96 -22.14,4.91 -42.12,-22.49 -65.12,-3.71 -6.68,0.77 -12.7,-0.37 -17.45,-5.35z"/>
   <path class="fil0" d="M10614.3 5447.97c-18.28,-4.52 -44.53,30.51 -55.46,-10.07 27.27,-28.47 54.51,-56.98 81.81,-85.45 8.14,4.05 11.66,11.01 13.33,19.13 -0.25,10.89 -6.93,17.87 -15.9,23.44 -5.19,2.05 -10,4.68 -13.5,9.05 -0.63,0.79 -0.03,1.83 0.6,2.38 1.37,-1.99 3.34,-3.74 6.05,-5.32 3.42,-1.53 6.82,-2.32 10.43,-2.67 29.13,0.87 13.71,23.88 20.15,36.15 -1.27,3.68 -3.48,6.62 -6.85,8.84 -13.02,5.85 -28.29,-6.18 -40.67,4.52z"/>
   <path class="fil0" d="M10577.91 5508c13.42,0.29 21.88,-6.56 27.71,-17.23 4.5,-5.25 7.65,-12.96 17.43,-8.49 2.05,9.53 -12.83,25.03 10.57,27.08 -18.85,22.2 -37.73,44.45 -56.57,66.65 -21.88,-11 -20.55,16.18 -34.17,18.65 -20.4,-19.25 4.52,-39.71 -1.97,-59.36 2.51,-9.43 -12.23,-23.53 8.23,-28.22 3.55,0.19 7.11,0.38 10.65,0.6 6.17,-6.2 11.97,6.12 18.11,0.32z"/>
   <path class="fil0" d="M11094.04 5114.48c11.56,-23.02 -14.98,-34.02 -18.41,-52.29 3.01,-2.92 5.99,-5.8 9.02,-8.68 16.85,-22.52 42.06,-12.82 64.27,-14.95 3.99,1.47 7.16,3.94 9.63,7.19 -0.25,4.15 -1.84,8.71 -0.51,12.38 17.11,48.5 17.17,48.43 -37.12,47.01 -5.8,-13.31 6.52,-17.68 15.52,-23.7 -9.4,5.82 -23.72,9.21 -15.49,23.7 -6.78,8.77 -16.31,10.51 -26.91,9.33z"/>
   <path class="fil0" d="M10514.31 5704.88c24.48,-14.16 -22.87,-39.94 9.53,-52.83 9.43,-2.8 16.09,1.8 22.33,7.44 3.99,21.98 17.38,38.48 34.49,52.89 2.28,8.43 -0.81,15.68 -5.5,22.58 -4.16,4.98 -9.41,7.89 -16.23,8.05 -23.9,-9.16 -43.64,-0.47 -62.2,13.21 -16.28,-1.88 -25.66,-10.14 -26.83,-25.98 9.31,-17.04 35.85,-7 44.34,-25.27l0.07 -0.1z"/>
   <path class="fil0" d="M10740.62 5825.19c3.1,0 6.24,-0.03 9.37,-0.06 59.73,58.62 125.37,112.82 161.6,189.47 -2.92,3.2 -5.61,3.23 -8.14,-0.41 -6.49,-8.36 -12.98,-16.75 -19.49,-25.15 -9.12,-10.3 -24.44,-13.08 -32.9,-24.26 -20.3,-24.42 -44.41,-45.29 -69.08,-65.63 -15.84,-20.3 -31.68,-40.61 -44.06,-63.09 -1.01,-4.02 -0.13,-7.67 2.7,-10.87z"/>
   <path class="fil0" d="M10387.68 5627.66c-3.42,3.55 -6.88,7.11 -10.3,10.65 -36.9,-19.03 -59.19,-52.8 -89.03,-78.96 -0.04,-1.64 0.4,-3.2 1.35,-4.62 11.79,-10.86 24.42,-11.5 33.29,1.71 15.9,23.69 40.2,24.8 65.43,25.06 24.58,5.12 21.32,18.41 11.03,33.79 -2.92,4.98 -6.4,9.5 -11.78,12.38z"/>
   <path class="fil0" d="M10614.3 5447.97c12.6,-14.7 29.94,-6.74 45.23,-8.39 1.8,0.22 3.61,0.47 5.35,0.67 5.41,0.47 10.77,-0.17 16.15,-0.51 1.84,-0.1 3.61,-0.16 5.42,-0.25 9.31,-5.61 18.63,-11.25 27.94,-16.85 -14.89,39.15 -44.63,65.89 -81.31,86.72 3.68,-23.22 30.32,-52.71 -18.78,-61.39z"/>
   <path class="fil0" d="M10957.94 5139.37c6.11,0 12.23,0 18.31,0.03 6.2,16.59 43.17,-4.4 37.03,27.18 -19.83,16.22 -37.73,34.94 -63.57,43.2 -0.76,-11.08 -23.82,-23.06 3.55,-33.44 9.37,-3.58 3.44,-14.76 -4.79,-20.46 3.17,-5.52 6.34,-11.03 9.47,-16.51z"/>
   <path class="fil0" d="M10406.48 5765.92c-5.22,-12.3 -20.21,-20.07 -18.49,-35.6 12.73,0.35 16.57,-10.2 24.1,-16.79 30.32,-26.57 45.74,-21.95 57.81,16.19 -37.57,-13.72 -41.18,25.87 -63.42,36.2z"/>
   <path class="fil0" d="M10124.88 6115.67c4.24,8.27 5.54,29.43 18.02,4.38 4.72,-9.53 10.39,-6.5 17.04,-4.15 6.46,5.54 7.09,11.66 2.12,18.37 -0.51,1.29 -0.69,2.84 -1.62,3.86 -13.54,15.49 -16.4,53.59 -42.38,40.83 -20.17,-9.88 -6.52,-42.47 6.82,-63.29z"/>
   <path class="fil0" d="M11147.85 5044.64c-21.03,3.22 -43.33,-1.68 -63.19,8.86 5.52,-11.74 4.5,-20.9 -11.68,-14.72 -11.94,4.56 -21.64,15.26 -35.54,5.19 14.98,-15.55 34.33,-22.3 55.74,-24.93 16.91,-2.37 33.89,-6.97 50.68,0.03 15.3,6.33 22.14,14.31 3.99,25.57z"/>
   <path class="fil0" d="M10496.73 5756.23c12.42,-34.87 34.87,-37.51 64.23,-17.93 -15.24,11.03 -15.55,27.75 -18.69,43.42 -4,0.58 -7.98,1.14 -11.98,1.71 -15.74,-4.06 -24.3,-16.03 -33.57,-27.2z"/>
   <path class="fil0" d="M10650.35 5370.82c-7.79,-3.96 -8.52,-11.25 -9.69,-18.37 24.32,-25.31 48.66,-50.62 72.97,-75.93 3.04,0.13 6.08,0.26 9.1,0.39 4.62,8.45 -0.23,15.3 -4.16,22.29 -24.03,22.72 -25.56,64.78 -68.22,71.63z"/>
   <path class="fil0" d="M10949.23 5097.7c-13.68,53.33 -33.04,66.89 -72.29,50.51 24.1,-16.84 48.18,-33.66 72.29,-50.51z"/>
   <path class="fil0" d="M10939.78 6065.21c-17.71,5.89 12.64,34.19 -17.73,34.12 -10.71,-12.54 -17.33,-28.85 -35.29,-34.75 -1.11,-9.38 -3.36,-19.07 7.92,-24.93 9.63,0.39 19.16,-0.07 28.53,-2.15 17.27,2.94 11.63,18.18 16.57,27.71z"/>
   <path class="fil0" d="M10394.77 5484.09c0.73,-3.48 1.49,-7.01 2.22,-10.51 16.31,5.28 24.5,17.92 33.12,30.88 10.89,16.41 27.05,23.76 47.9,19.57 -1.87,35.7 -25.09,25.66 -46.56,19.64 -20.78,-15.08 -42.29,-29.87 -36.68,-59.58z"/>
   <path class="fil0" d="M11013.27 5166.59c-1.84,-21.86 -36.36,-3.84 -37.03,-27.18 27.21,-33.76 44.95,-7.54 64.27,9.03 -5.01,11.59 -18.18,12.1 -27.24,18.15z"/>
   <path class="fil0" d="M11147.85 5044.64c10.65,-22.37 -9.87,-21.93 -21.76,-23.7 -10.51,-1.59 -22.18,5.29 -32.91,-1.9 19.48,-15.2 42.16,-8.36 63.54,-7.16 13.08,0.77 20.68,11.47 21.32,23.25 0.73,12.64 -12.14,8.21 -19.47,10.61 -3.58,-0.37 -7.13,-0.76 -10.71,-1.1z"/>
   <path class="fil0" d="M10162.06 6134.27c-0.69,-6.15 -1.39,-12.27 -2.09,-18.37 3.4,-2.88 6.85,-5.74 10.26,-8.58 11.48,-8.5 11.73,-22.74 19.05,-33.39 2.72,-3.1 5.44,-6.18 8.17,-9.28 6.62,-5.32 13.24,-10.58 19.83,-15.87 -11.66,32.4 -18.56,67.56 -55.21,85.5z"/>
   <path class="fil0" d="M10431.89 5534.89c17.87,5.89 36.56,14.85 46.12,-10.87 2.84,-2.66 5.64,-5.29 8.49,-7.95 6.42,0.31 12.86,0.66 19.29,1.01 2.15,3.61 2.69,7.41 1.35,11.43 -13.48,22.12 -35.67,33.1 -59.64,41.78 -12.29,2.82 -19.19,-3.64 -24.54,-12.74 -1.68,-3.45 -2.44,-7.13 -2.34,-10.93 1.67,-5.7 5.18,-9.81 11.27,-11.75z"/>
   <path class="fil0" d="M10923.22 6037.5c-2.15,5.96 -0.73,14.7 -9.91,15.77 -10.01,1.18 -14.44,-6.55 -18.62,-13.62 2.91,-8.49 5.85,-16.98 8.77,-25.47 2.7,0.44 5.41,0.57 8.14,0.41 3.86,7.63 7.76,15.26 11.62,22.9z"/>
   <path class="fil0" d="M11003.01 5061.77c3.04,28.73 -16.95,27.31 -37.25,25.5 7.96,-14.34 23.26,-19.09 37.25,-25.5z"/>
   <path class="fil0" d="M11037.81 6246.08c6.49,-3.08 12.98,-6.15 19.47,-9.25 7.48,5.31 15.75,12.48 5.04,19.53 -10.73,7.07 -18.97,-1.04 -24.51,-10.29z"/>
   <path class="fil0" d="M10268.67 5362.93c-5.7,16.69 -20.23,16.73 -34.85,16.6 -15.8,7.06 -20.49,-11.03 -32.66,-13.18 13.15,8.81 17.39,18.35 4.28,29.96 -8.67,5.7 -17.42,11.4 -26.1,17.14 -19.13,-12.29 -16.79,-34.75 -26.95,-51.24l0.22 0.22c-3.2,-2.82 -4.21,-6.24 -3.07,-10.26 4.85,-23.82 -10.13,-38.27 -29.08,-47.8 -12.54,-6.33 -4.9,8.81 -9.31,12.33 -7.63,10.16 -20.36,7.76 -30.68,11.14 -3.42,-0.21 -6.88,-0.44 -10.27,-0.67 -8.77,-11.56 -27.75,-15.23 -28.44,-33.03 5.41,-3.33 6.36,-7.92 1.93,-10.17 -6.78,-3.45 -12.19,-7.47 -8.81,-15.93 15.71,-7.51 49.42,13.27 45.11,-25.75 7.79,-3.61 15.62,-7.25 23.44,-10.86 24.8,52.64 105.44,54.7 118.85,119.25 4.96,23.88 33.26,-1.01 46.4,12.26z"/>
   <path class="fil0" d="M10071.06 5242.12c-26.33,-11.3 -47.23,-28.59 -63.28,-51.28 9.91,-21 32.02,-18.94 37.41,-5.22 7.57,19.39 64.95,19.73 25.87,56.5z"/>
   <path class="fil0" d="M9971.92 5216.25c-2.18,10.57 2.32,25.97 -12.57,28.94 -22.34,4.44 -20.69,-20.23 -32.98,-28.69 -9.75,-15.8 -49.47,-5 -38.25,-40.28 29.38,5.95 48.87,35.16 81.83,32.43 2.86,1.11 4.09,2.63 3.71,4.5 -0.41,2.07 -0.95,3.11 -1.74,3.11z"/>
   <path class="fil0" d="M9971.92 5216.25c-0.29,-2.64 -0.91,-5.16 -1.93,-7.61 -7.45,-20.97 -25.88,-24.82 -45.87,-28.6 -10.89,-2.05 -19.64,-13.08 -13.78,-22.93 8.52,-14.34 17.14,-0.79 25.09,3.9 21.16,12.45 42.25,24.99 63.38,37.51 0.76,19.12 -12.77,18.81 -26.89,17.73z"/>
   <path class="fil0" d="M10713.73 5293.82c3.01,-5.64 6.02,-11.27 9,-16.91 22.32,-9.6 45.03,-16.35 59.13,-39.78 10.55,-17.58 31.52,-17.71 49.32,-3.61 -10.46,5.79 -17.55,13.87 -19.23,25.59 -12.48,-7.69 -20.62,-3.04 -26.45,8.21 -1.17,13.4 -6.75,24.93 -16.5,34.69 -0.39,5.76 -0.8,11.53 -1.24,17.29 -19.63,4.24 -29.14,-15.24 -46.03,-17.55 -3.36,-2 -5.98,-4.7 -8.01,-7.92z"/>
   <path class="fil0" d="M10189.27 6073.92c0.19,14.47 -1.24,28.13 -19.05,33.39 2.57,-13.06 6.44,-25.47 19.05,-33.39z"/>
   <path class="fil0" d="M10442.54 5567.55c21,-14.16 42,-28.29 63,-42.41 12.32,-14.6 23.75,-21.32 31.93,3.07 -1.94,10.51 -10.71,17.2 -16.1,25.81 -11.37,14.92 -12.01,27.47 8.49,35.57 6.36,6.43 9.56,13.3 3.3,21.42 0,5.28 -0.04,10.55 -0.04,15.8 3.04,8.56 12.36,11.82 17.36,18.31 7.54,9.79 7.38,18.41 -9.53,17.68 -5.7,-3.58 -11.38,-7.13 -17.11,-10.71 -6.21,-22.55 -14.16,-5.42 -24.2,-2.5 -19.63,5.72 -24.42,23.66 -39.25,37.11 -11.23,-35.79 -77.72,-4.94 -72.71,-59.04 0.31,-5.44 0.6,-10.86 0.88,-16.28 7.64,-10.55 31.36,1.84 31.14,-19.76 0.47,-3.33 1.8,-6.28 3.9,-8.91 4.88,-4.08 11.25,-5.44 17.01,-7.59 2.09,-2.19 2.76,-4.69 1.93,-7.57z"/>
   <path class="fil0" d="M10368.83 5756.77c-3.74,46.05 -31.01,-1.42 -43.49,9.81 -2.98,-8.71 -5.98,-17.45 -8.99,-26.16 12.48,-6.33 30.06,-32.88 29.94,7.95 -0.04,10.83 14.18,7.06 22.55,8.39z"/>
   <path class="fil0" d="M10514.24 5704.98c-9.66,-0.45 -19.38,-0.93 -33.39,-1.55 16.79,-17.55 24.77,-5.76 33.46,1.45 0,0 -0.07,0.1 -0.07,0.1z"/>
   <path class="fil0" d="M10388.46 5585.44c-18.81,9.19 -56.12,3.26 -64.93,-12.92 -7.86,-14.45 -16.41,-22.28 -33.83,-17.78 -18.25,-33.5 -32.91,-66.16 -73.89,-86.37 -26.45,-13.02 15.46,-28.7 18.12,-46.24 -6.28,-30.38 21.6,-19.71 35.19,-26.27 19.45,12.92 45.86,21.38 37.13,52.29 -18.16,19.77 -9.13,33.26 11.34,44.03 7.29,6.4 13.75,13.46 20.08,20.65 6.08,7.26 15.33,10.93 22.11,17.42 12.44,17.01 43.96,25.25 28.69,55.18z"/>
   <path class="fil0" d="M10269.12 5395.87c-2.5,19.86 -32.84,6.24 -35.19,26.27 -18.31,0.09 -20.66,-15.58 -28.48,-25.83 1.36,-12.16 1.17,-23.33 -15.74,-25.4 -11.24,-1.35 -24.11,-5.22 -15.36,-17.95 9.41,-13.78 17.58,1.8 25.4,5.88 11.79,6.18 22.74,13.72 34.09,20.69 7.73,13.21 27.62,2.94 35.29,16.34z"/>
   <path class="fil0" d="M10107.8 5319.25c-4.31,-10.13 -8.65,-20.29 -13.02,-30.59 51.66,6.52 68.51,24.99 58.76,63.98 -4.53,-0.6 -7.7,-2.98 -9.66,-6.78 -16.47,3.58 -10.45,-21.72 -26.63,-18.53 -10.05,4.56 -11.09,-0.35 -9.45,-8.09z"/>
   <path class="fil0" d="M10152.4 5362.21c14.8,14.32 23.82,31.42 26.95,51.24 -57.71,5.89 -17.32,-34.49 -26.95,-51.24z"/>
   <path class="fil0" d="M10044.17 5293.76c8.21,11.46 29.04,14.12 26.03,33.4 -8.3,-0.12 -16.6,-0.31 -24.83,-0.47 -6.52,-10.99 -13.08,-22 -19.61,-32.97 6.15,-4.6 12.26,-4.56 18.41,0.04z"/>
   <path class="fil0" d="M10107.8 5319.25c3.17,2.7 6.3,5.39 9.45,8.09 -11.98,19.61 -24.17,23.66 -36.81,0.5 2.03,-23.24 16.19,-11.62 27.37,-8.59z"/>
   <path class="fil0" d="M10143.88 5345.86c3.23,2.28 6.43,4.53 9.66,6.81 -0.32,3.24 -0.63,6.49 -0.92,9.76 -8.42,6.93 -16.88,13.88 -26.13,21.44 -13.59,-22.46 9.15,-27.05 17.39,-38.01z"/>
   <path class="fil0" d="M10722.11 5293.85c19.32,1.91 32.22,14.1 45.65,25.44 15.46,28.07 -24.1,25.91 -26.67,43.39 -3.4,23.5 -14.16,30.15 -36.11,17.21 -19.45,-9.51 -11.59,-22.91 -5.8,-36.03 15.17,-13.55 14.16,-33.79 22.93,-50.01z"/>
   <path class="fil0" d="M10704.57 5344.94c-0.37,11.66 -8.81,23.38 0.41,34.95 -3.77,17.95 -10.13,34.39 -28.69,43.64 -4.44,5.29 -10.26,7.47 -17.23,7.13 -6.91,-0.89 -16.51,-0.73 -9.54,-11.09 7.39,-10.96 2.85,-14.1 -8.39,-14.66 12.73,-28 27.43,-54.1 63.44,-59.96z"/>
   <path class="fil0" d="M10769 5301.99c-2.35,-14.92 1.58,-27.11 16.5,-34.69 8.43,6.05 16.97,14.16 10.58,23.7 -5.14,7.59 -12.04,21 -27.08,10.99z"/>
   <path class="fil0" d="M10659.06 5430.66c4.17,-5.74 9.93,-8.12 17.25,-7.13 3.36,5.32 6.75,10.64 10.14,15.97 0,0.03 0.25,-0.19 0.25,-0.19 -9.18,6.26 -18.37,7.35 -27.52,-0.1 0,0 0.35,0.35 0.35,0.38 -0.16,-2.98 -0.35,-5.96 -0.47,-8.93z"/>
   <path class="fil0" d="M10044.17 5293.76c-6.14,0 -12.26,-0.04 -18.41,-0.04 -8.49,-9.12 -17.01,-18.28 -25.53,-27.4 14.63,-12.82 24.23,-2.56 34.65,1.71 -2.82,10.49 35.39,7.69 9.29,25.73z"/>
   <path class="fil0" d="M10288.66 5885.42c-3.61,22.2 -22.14,15.52 -36.49,16.95 8.14,-16.09 16.25,-32.22 24.45,-48.53 18.59,7.32 -5.64,25.75 12.04,31.58z"/>
   <path class="fil0" d="M10967.06 6142.31c0.75,-9.44 3.11,-16.44 14.32,-7.51 12.06,9.63 10.39,17.65 -3.74,23.69 -3.49,-5.38 -7.01,-10.8 -10.58,-16.19z"/>
   <path class="fil0" d="M10540.95 5662.79c20.68,-16.54 -16.92,-21.7 -7.83,-35.99 26.89,23.47 53.72,46.91 80.61,70.39 7.85,7.13 8.84,19.16 19.38,24.36l-0.09 -0.06c6.65,13.39 7.63,25.36 -9.06,33 -6.68,2.34 -13.6,1.77 -20.46,1.33 -2.44,0.35 -4.94,0.63 -7.42,0.89 -17.71,2.18 -16.09,-9.92 -13.46,-19.01 2.79,-9.82 -0.79,-16.44 -6.26,-23.4 -20.66,-11.72 -45.61,-20.78 -35.41,-51.5z"/>
   <path class="fil0" d="M10603.5 5755.82c3.58,-2.63 7.13,-5.26 10.7,-7.92 36.61,5.45 54.93,31.7 73.49,57.77 3.01,3.04 5.13,6.5 6.62,10.39 1.17,4.05 1.71,8.13 1.84,12.32 -0.93,10.74 -2.7,21 -15.42,25.28 -27.09,-1.11 -39.82,-22.43 -57.56,-36.68 8.07,-24.6 -0.63,-44.38 -19.67,-61.16z"/>
   <path class="fil0" d="M10542.28 5781.72c-5.26,-10.89 -10.49,-21.79 -15.75,-32.68 11.44,-3.55 22.94,-7.13 34.41,-10.71 3.07,-2.14 6.08,-4.3 9.15,-6.42 20.72,0.82 13.46,17.2 10.86,24 -6.26,16.35 0.31,19.05 14.74,18.15 10.06,9.13 22.6,17.07 17.77,33.36 -5.74,5.7 -11.73,5.03 -17.87,0.69 -15.39,-13.15 -39.6,-10.23 -53.31,-26.39z"/>
   <path class="fil0" d="M10777.24 5996.42c-17.74,-15.88 -36.65,-30.06 -60.78,-36.34 -7.19,-17.54 10.29,-32.24 6.36,-49.4 1.77,-1.05 3.58,-2.12 5.35,-3.24 34.15,9.25 48.28,35.57 60.44,63.61 1.65,3.73 2.63,7.67 3.17,11.69 -1.39,7.85 -1.55,16.91 -14.54,13.68z"/>
   <path class="fil0" d="M10623.17 5816.98c25.47,0.83 35.25,23.98 54.26,34.05 9.47,4.21 15.71,10.23 12.86,21.19 -1.17,1.43 -2.34,2.86 -3.54,4.28 -52.87,10.51 -56.83,-25.85 -63.57,-59.52z"/>
   <path class="fil0" d="M10722.82 5910.68c-9.97,3.99 -16.75,25.79 -26.85,13.78 -9.45,-11.25 -26.51,-28.77 -9.22,-47.95l-0.29 0.25c30.25,-5.82 42.22,5.64 36.11,34.21l0.25 -0.29z"/>
   <path class="fil0" d="M10595.68 5774.06c-16.95,2.64 -35.16,6.74 -21.1,-20.08 4.15,-7.98 4,-16.03 -4.5,-22.1 2.09,-5.86 4.21,-11.73 6.3,-17.58 36.13,1.8 -0.83,34.11 19.69,42.41 -0.15,5.79 -0.25,11.56 -0.4,17.35z"/>
   <path class="fil0" d="M10595.58 5808.11c5.95,-0.25 11.94,-0.48 17.87,-0.69 -4.41,9.05 11.43,28.43 -11.19,26.92 -15.42,-1.01 -20.55,-13.65 -6.68,-26.23z"/>
   <path class="fil0" d="M10859.42 5961.61c9.6,8.01 21,14.57 24.54,27.43 -20.65,2.66 -41.3,5.31 -61.95,7.95 -18.06,5.51 -25.34,-9.13 -36.11,-17.29l0.73 -0.73c-7.13,-11.24 -11.31,-23.47 -0.1,-33.67 10.27,-9.35 21.77,-1.99 32.4,1.99 13.44,4.97 24.99,14.6 40.48,14.32z"/>
   <path class="fil0" d="M10785.91 5979.69c16.13,-1.91 23.98,11.72 36.11,17.29 6.11,15.17 28.75,21.12 25.4,46.12 -24.99,-15.91 -57.14,-16.85 -70.18,-46.66 7.13,-3.64 8.61,-9.85 8.67,-16.75z"/>
   <path class="fil0" d="M10859.42 5961.61c-15.2,18.4 -30.91,5.22 -42.06,-2.63 -34.21,-24.01 -31.01,-1.01 -30.72,19.99 -19.89,-23.92 -32.6,-53.91 -64.08,-68 -4.72,-18.31 -16.81,-29.69 -36.07,-34.21 -3.04,-8.58 -6.08,-17.17 -9.06,-25.72 11.62,-5.92 8.33,-16.47 8.9,-25.85 2.38,-2.44 4.87,-2.73 7.51,-0.79 2.09,-6.18 -5.76,-4.18 -6.97,-7.63 -0.09,-2.98 -0.19,-5.92 -0.29,-8.9 -2.97,-3.61 -2.66,-6.94 0.89,-10.04 20.11,4.97 39.66,10.89 53.15,27.37 0.47,2.69 0.91,5.38 1.33,8.07 -10.01,36.4 -2.25,46.27 46.62,59.46 27.52,19.39 51.44,42.06 70.85,68.89z"/>
   <path class="fil0" d="M10514.68 5550.82c0.41,-10.96 6.46,-16.67 17.96,-17.17 5.38,-5 11.12,-5.2 17.2,-1.24 15.65,22.56 -15.3,40.42 -7,62.24 -3.24,5.45 -6.46,10.9 -9.69,16.35 -1.71,-6.66 -2.28,-13.94 -10.55,-16.92 -18.62,-11.78 -16.63,-26.99 -7.92,-43.27z"/>
   <path class="fil0" d="M10687.47 5797.82c-0.29,3.36 -0.57,6.71 -0.89,10.04 -24.13,-19.96 -48.27,-39.97 -72.37,-59.96 18.63,-0.89 17.74,-14.26 18.82,-26.39 3.23,2.98 6.42,5.95 9.69,8.89 4,12.8 13.34,20.66 26.07,25.41 4.78,14.57 35.5,18.78 18.69,42z"/>
   <path class="fil0" d="M10668.78 5755.82c-21.25,3.1 -30,-5.32 -26.1,-25.41 8.71,8.46 17.42,16.92 26.1,25.41z"/>
   <path class="fil0" d="M10633.11 5721.55c-18.87,0.79 -19.53,-11.53 -19.38,-24.36 11.15,4.75 18.41,12.32 19.38,24.36z"/>
   <path class="fil0" d="M10549.84 5532.42c-5.7,0.39 -11.44,0.83 -17.2,1.24 -2.09,-22.68 -15.45,-13.21 -27.11,-8.52 0.06,-2.7 0.15,-5.39 0.25,-8.05 9.85,-21.23 26.1,-17.62 43.35,-10.01 -10.13,8.71 4.56,16.75 0.7,25.34z"/>
   <path class="fil0" d="M10623.05 5482.28c-5.84,2.82 -11.6,5.66 -17.43,8.49 1.53,-10.54 -14.72,-26.61 5.99,-30.44 11.88,-2.18 18.66,9.25 11.44,21.95z"/>
   <path class="fil0" d="M10577.91 5508c0.35,4.69 7.53,12.64 0.69,13.05 -5.99,0.35 -12.54,-8.55 -18.81,-13.37 6.2,-8.52 12.26,-8.42 18.11,0.32z"/>
   <path class="fil0" d="M10332.91 5516.91c-5.96,-5.36 -11.91,-10.68 -17.87,-16.01 0.47,-11.11 11.75,-12.5 18.18,-18.27 2.5,-3.61 -4.46,-15.88 9.35,-9.1 13.37,5.39 26.29,10.68 34.31,23.76 12.26,20.02 20.2,43.87 46.71,52.74l0.89 1.62c6.4,14.03 -8.77,28.22 0.41,42.22 15.97,9.25 20.24,18.84 -2.47,22.55 -10.67,1.74 -22.55,-3.17 -33.86,-5.06 4.18,-8.65 23.13,-17.37 -0.09,-25.91 1.43,-25.94 -29.29,-31.64 -36.61,-52.1 3.3,-15.42 -0.47,-23.54 -18.94,-16.44z"/>
   <path class="fil0" d="M10423.59 5550.03c-49.54,-4.06 -48.56,-56.15 -81.02,-76.5 20.21,-8.96 36.83,-1.96 52.23,10.55 10.55,18.12 19.58,37.25 37.09,50.8 -2.75,5.03 -5.54,10.11 -8.3,15.14z"/>
   <path class="fil0" d="M10333.22 5482.63c-3.29,8.55 -8.87,15.07 -18.18,18.24 -3.58,-2.4 -6.85,-5.57 -10.83,-7.1 -43.49,-17.03 -32.53,-31.73 2.03,-45.61 -1.21,18.69 4.62,32.38 26.98,34.47z"/>
   <path class="fil0" d="M10704.57 5344.94c-30.15,11.4 -37.27,44.73 -63.44,59.96 -3.01,0.41 -6.02,0.85 -9.02,1.29 -5.55,-6.11 -4.95,-11.94 0.79,-17.58 8.11,-3.92 14.85,-9.06 17.45,-17.79 29.07,-19.8 37.65,-54.73 63.38,-77 2.78,0 5.6,0 8.42,0.03 9.47,21.76 9.19,40.51 -17.58,51.09z"/>
   <path class="fil0" d="M10632.9 5388.62c-0.25,5.86 -0.51,11.69 -0.79,17.55 -5.58,7.25 -5.93,18.37 -20.79,22.33 1.49,-17.52 2.67,-32.46 21.58,-39.88z"/>
   <path class="fil0" d="M11120.96 5105.14c-31.54,-32.82 15.75,-23.34 21.58,-36.11 3.58,4.15 8.23,7.85 10.45,12.57 3.13,6.56 0.37,10.77 -8.05,9.03 -13.18,-2.72 -19.23,4.85 -24.01,14.51l0.03 0z"/>
   <path class="fil0" d="M10788.57 5892.72c-38.35,21.63 -50.3,-12.17 -65.59,-31.1 -12.29,-15.24 1.74,-25.19 18.93,-28.35 20.88,16.09 31.14,39.62 46.66,59.46z"/>
   <path class="fil0" d="M10659.18 5439.2c9.19,0.07 18.34,0.07 27.52,0.1 -4.18,6.78 -7.44,15.26 -17.57,14.82 -9.54,-0.41 -8.91,-8.52 -9.95,-14.92z"/>
   <path class="fil0" d="M10424.89 5593.87c-18.69,-13.94 -8.81,-28.09 -0.41,-42.22 6.02,5.28 12.04,10.61 18.06,15.9 2.28,0.63 4.65,1.01 7.03,1.08 4.94,23.02 -21.92,4.24 -24.83,16.94 -0.31,2.78 -0.25,5.54 0.16,8.3z"/>
   <path class="fil0" d="M10514.68 5550.82c-1.26,15.07 -1.26,29.94 7.92,43.27 -48.24,-6.94 -18.91,-26.6 -7.92,-43.27z"/>
   <path class="fil0" d="M10424.73 5585.57c8.29,-5.64 16.6,-11.3 24.86,-16.94 10.05,29.77 -17.03,10.7 -24.86,16.94z"/>
   <path class="fil0" d="M10332.91 5516.91c2.79,-8.31 2.34,-24.48 15.36,-17.93 11.5,5.76 19.64,21.25 3.58,34.37 -4.18,-7.67 -22.52,-0.73 -18.94,-16.44z"/>
   <path class="fil0" d="M10686.86 5816.76c9.76,1.3 21.42,-5.29 28.76,5.01 1.65,2.34 -0.06,9.49 -2.72,11.56 -12.54,9.69 -16.81,-7.63 -26.57,-8.14 -0.31,-2.82 -0.13,-5.67 0.53,-8.43z"/>
  </g>
 </g>
</svg>
